# xmcd
#
# Track frame offsets:
#	150
#	14468
#	30698
#	42285
#	54349
#
# Disc length: 1020 seconds
#
# Revision: 1
# Processed by: cddbd v1.5.1PL0 Copyright (c) Steve Scherf et al.
# Submitted via: audiograbber 1.81.03
#
DISCID=3603fa05
DTITLE=Much More - It's Much More Than That
DYEAR=2004
DGENRE=Country
TTITLE0=It's Much More Than That
TTITLE1=Sleepin' with a Smile
TTITLE2=Speed of Love
TTITLE3=Love That Won't Quit
TTITLE4=I Want You
EXTD=
EXTT0=
EXTT1=
EXTT2=
EXTT3=
EXTT4=
PLAYORDER=
